<svg xmlns="http://www.w3.org/2000/svg" xmlns:xlink="http://www.w3.org/1999/xlink" viewBox="0,0,256,256" width="100px" height="100px" fill-rule="nonzero"><g fill="#ff4700" fill-rule="nonzero" stroke="none" stroke-width="1" stroke-linecap="butt" stroke-linejoin="miter" stroke-miterlimit="10" stroke-dasharray="" stroke-dashoffset="0" font-family="none" font-weight="none" font-size="none" text-anchor="none" style="mix-blend-mode: normal"><g transform="scale(4,4)"><path d="M31.82031,12c-18.381,0 -19.82031,1.43931 -19.82031,19.82031v0.35938c0,18.381 1.43931,19.82031 19.82031,19.82031h0.35938c18.381,0 19.82031,-1.43931 19.82031,-19.82031v-0.17969c0,-18.548 -1.452,-20 -20,-20zM28,16h8c11.129,0 12,0.871 12,12v8c0,11.129 -0.871,12 -12,12h-8c-11.129,0 -12,-0.871 -12,-12v-8c0,-11.129 0.871,-12 12,-12zM41.99414,20c-1.105,0.003 -1.99714,0.90086 -1.99414,2.00586c0.003,1.105 0.90086,1.99714 2.00586,1.99414c1.105,-0.003 1.99714,-0.90086 1.99414,-2.00586c-0.003,-1.105 -0.90086,-1.99714 -2.00586,-1.99414zM31.97656,22c-5.522,0.013 -9.98956,4.50144 -9.97656,10.02344c0.013,5.522 4.50144,9.98956 10.02344,9.97656c5.522,-0.013 9.98956,-4.50144 9.97656,-10.02344c-0.013,-5.522 -4.50144,-9.98956 -10.02344,-9.97656zM31.98633,26c3.313,-0.008 6.00567,2.67333 6.01367,5.98633c0.007,3.313 -2.67333,6.00567 -5.98633,6.01367c-3.313,0.008 -6.00567,-2.67233 -6.01367,-5.98633c-0.008,-3.313 2.67333,-6.00567 5.98633,-6.01367z"></path></g></g></svg>