<svg xmlns="http://www.w3.org/2000/svg" xmlns:xlink="http://www.w3.org/1999/xlink" viewBox="0,0,256,256" width="100px" height="100px" fill-rule="nonzero"><g fill="#ff4700" fill-rule="nonzero" stroke="none" stroke-width="1" stroke-linecap="butt" stroke-linejoin="miter" stroke-miterlimit="10" stroke-dasharray="" stroke-dashoffset="0" font-family="none" font-weight="none" font-size="none" text-anchor="none" style="mix-blend-mode: normal"><g transform="scale(3.55556,3.55556)"><path d="M61.115,18.856c2.551,2.647 2.885,6.853 2.885,17.144c0,10.291 -0.334,14.497 -2.885,17.144c-2.552,2.647 -5.209,2.856 -25.115,2.856c-19.906,0 -22.563,-0.209 -25.115,-2.856c-2.551,-2.647 -2.885,-6.853 -2.885,-17.144c0,-10.291 0.334,-14.497 2.885,-17.144c2.551,-2.647 5.209,-2.856 25.115,-2.856c19.906,0 22.563,0.209 25.115,2.856zM31.464,44.476l13.603,-8.044l-13.603,-7.918z"></path></g></g></svg>